<svg width="90" height="64.5" viewBox="0 0 60 43" xmlns="http://www.w3.org/2000/svg" xmlns:xlink="http://www.w3.org/1999/xlink"><defs><path id="a" d="M5.823.355l-5.448 5.5h13.008l-7.56-5.5"/><mask id="o" fill="#fff"><use xlink:href="#a"/></mask><path id="b" d="M5.823.355l-5.448 5.5 5.448-5.5"/><mask id="p" fill="#fff"><use xlink:href="#b"/></mask><path d="M.467 6.437l1.863.322-1.863-.324m6.306-6.73l-.06.066 2.185 3.374-2.125-3.44" id="c"/><mask id="q" fill="#fff"><use xlink:href="#c"/></mask><path id="d" d="M6.712-.228L.467 6.437l1.863.322 6.568-3.615L6.712-.228"/><mask id="r" fill="#fff"><use xlink:href="#d"/></mask><path id="e" d="M2.303-.037L-.13 13.123l1.964.34 1.88-13 .01-.054-1.42-.448"/><mask id="s" fill="#fff"><use xlink:href="#e"/></mask><path id="f" d="M2.303-.037L-.13 13.123l1.964.34 1.88-13 .01-.054-1.42-.448"/><mask id="t" fill="#fff"><use xlink:href="#f"/></mask><path id="g" d="M-.277.41l-.008.05.008-.05"/><mask id="u" fill="#fff"><use xlink:href="#g"/></mask><path id="h" d="M-.277.41l-.008.05.008-.05"/><mask id="v" fill="#fff"><use xlink:href="#h"/></mask><path id="i" d="M9.49.093L.066 12.003 9.49.093"/><mask id="w" fill="#fff"><use xlink:href="#i"/></mask><path id="j" d="M9.49.094L.067 12.004l15.216-2.856-.02-3.672L9.49.094"/><mask id="x" fill="#fff"><use xlink:href="#j"/></mask><path id="k" d="M.26.476l.022 3.672L.262.475"/><mask id="y" fill="#fff"><use xlink:href="#k"/></mask><path id="l" d="M8.418.436L.066 2.004l9.73 8.173-1.38-9.74"/><mask id="z" fill="#fff"><use xlink:href="#l"/></mask><path id="m" d="M-.08-.13l9.915 1.275 2.683 10.564L9.835 1.143-.08-.128"/><mask id="A" fill="#fff"><use xlink:href="#m"/></mask><path id="n" d="M2.92-.13L-.165 21.88l5.33.88L15.52 11.71 12.835 1.146 2.92-.128"/><mask id="B" fill="#fff"><use xlink:href="#n"/></mask></defs><g fill="none" fill-rule="evenodd"><path d="M24.283 27.147L9.066 30.004l9.426-11.91 5.77 5.382.02 3.67" fill="#253B76"/><path d="M52.898 25.146l-5.48-8.46-8.11-2.76-2.44 13.198 9.462 1.635 6.568-3.615" fill="#24366C"/><path d="M9.066 30.004l9.73 8.173-1.378-9.74-8.352 1.567" fill="#252E65"/><path d="M24.375 42.855h13.008l-7.56-5.5-5.448 5.5" fill="#243B77"/><path d="M50.217-.098l9.41 5.97v2.273L41.92 5.87l8.297-5.968" fill="#3877B1"/><path d="M52.898 25.146l-1.214 5.21-1.82-3.54 3.034-1.67" fill="#242C62"/><path d="M39.415 13.37L-.08.77l24.34 22.706L39.416 13.37" fill="#E5E1DB"/><path d="M39.415 13.37l-3.347 17.68-11.693 11.805-.114-19.38L39.417 13.37" fill="#144C8E"/><path d="M51.835 7.145l2.683 10.564-10.353 11.05-5.33-.883L41.92 5.87l9.915 1.275" fill="#1C5C9E"/><path d="M39.415 13.37L-.08.77l24.34 22.706L39.416 13.37" fill="#135697"/><path d="M5.823.355l-5.448 5.5h13.008l-7.56-5.5" mask="url(#o)" transform="translate(24 37)"/><path d="M5.823.355l-5.448 5.5 5.448-5.5" mask="url(#p)" transform="translate(24 37)"/><path d="M.467 6.437l1.863.322-1.863-.324m6.306-6.73l-.06.066 2.185 3.374-2.125-3.44" mask="url(#q)" transform="translate(44 22)"/><path d="M6.712-.228L.467 6.437l1.863.322 6.568-3.615L6.712-.228" mask="url(#r)" transform="translate(44 22)"/><path d="M2.303-.037L-.13 13.123l1.964.34 1.88-13 .01-.054-1.42-.448" mask="url(#s)" transform="translate(37 14)"/><path d="M2.303-.037L-.13 13.123l1.964.34 1.88-13 .01-.054-1.42-.448" mask="url(#t)" transform="translate(37 14)"/><path d="M-.277.41l-.008.05.008-.05" mask="url(#u)" transform="translate(41 14)"/><path d="M-.277.41l-.008.05.008-.05" mask="url(#v)" transform="translate(41 14)"/><path d="M9.49.093L.066 12.003 9.49.093" mask="url(#w)" transform="translate(9 18)"/><path d="M9.49.094L.067 12.004l15.216-2.856-.02-3.672L9.49.094" mask="url(#x)" transform="translate(9 18)"/><path d="M.26.476l.022 3.672L.262.475" mask="url(#y)" transform="translate(24 23)"/><path d="M8.418.436L.066 2.004l9.73 8.173-1.38-9.74" mask="url(#z)" transform="translate(9 28)"/><path d="M-.08-.13l9.915 1.275 2.683 10.564L9.835 1.143-.08-.128" mask="url(#A)" transform="translate(42 6)"/><path d="M2.92-.13L-.165 21.88l5.33.88L15.52 11.71 12.835 1.146 2.92-.128" mask="url(#B)" transform="translate(39 6)"/></g></svg>